<svg width="128" height="102" viewBox="0 0 128 102" fill="none" xmlns="http://www.w3.org/2000/svg">
<g clip-path="url(#clip0_1_544)">
<path d="M0 69.88H12.9691V73.8243H4.81679V76.0947H12.9691V79.8732H4.81679V82.3811H12.9691V86.3253H0V69.88Z" fill="black"/>
<path d="M15.7354 69.88H20.5521V82.1187H28.2457V86.3253H15.7354V69.88Z" fill="black"/>
<path d="M30.4897 86.317V69.88H35.3065V86.3253L30.4897 86.317Z" fill="black"/>
<path d="M47.3803 74.0784V86.317H42.558V74.0784H37.6389V69.88H52.2855V74.0784H47.3803Z" fill="black"/>
<path d="M54.4852 69.7972H67.4543V73.7469H59.302V76.0173H67.4654V79.7931H59.302V82.3093H67.4654V86.2535H54.4769L54.4852 69.7972Z" fill="black"/>
<path d="M77.4803 69.88H82.2971V82.1187H89.9907V86.3253H77.4803V69.88Z" fill="black"/>
<path d="M92.2347 86.317V69.88H97.0515V86.3253L92.2347 86.317Z" fill="black"/>
<path d="M100.495 69.88H112.613V73.8243H105.312V76.6443H111.588V80.4228H105.312V86.3253H100.495V69.88Z" fill="black"/>
<path d="M115.031 69.88H128V73.8243H119.848V76.0947H128V79.8732H119.848V82.3811H128V86.3253H115.031V69.88Z" fill="black"/>
<path d="M41.3669 27.4908C41.3669 27.4908 72.379 -2.9554 98.6295 1.61857C99.8116 1.81399 100.954 2.20019 102.012 2.76206C102.788 3.18011 103.476 3.74263 104.04 4.41929C111.17 13.1281 90.4412 26.3141 90.4412 26.3141C90.4412 26.3141 99.0081 17.992 96.2805 11.794C95.64 10.4094 94.4823 9.33059 93.0555 8.78886C84.3063 5.31972 62.6515 10.8991 41.3669 27.4908Z" fill="black"/>
<path d="M61.7257 13.3822L63.8038 0H52.5066L49.3341 21.1822C53.5485 17.981 58.5697 15.0891 61.7257 13.3822Z" fill="black"/>
<path d="M61.1122 17.3291C54.5185 20.674 50.6274 23.4222 48.7787 24.8751L43.1107 62.66C43.1107 62.66 47.4743 61.9778 54.2863 59.9449L61.1122 17.3291Z" fill="black"/>
<path d="M41.4912 52.4984C35.2402 51.2362 30.3792 47.1842 29.9563 41.0359C29.0858 28.3691 41.2867 18.503 41.2867 18.503C24.6725 30.7804 15.7658 45.3475 20.5328 54.686C26.0598 64.8365 43.5252 65.6762 63.7374 58.702C72.7299 55.6002 81.2083 51.1864 89.0815 45.8474C102.128 37.0088 112.019 27.3416 115.274 18.4229C102.064 36.1829 65.9123 56.2189 41.4912 52.4984Z" fill="#2B00FF"/>
<path d="M0 93.4072L11.3691 94.5701L0 95.7301V93.4072Z" fill="black"/>
<path d="M128 93.4072L116.631 94.5701L128 95.7301V93.4072Z" fill="black"/>
<path d="M23.9569 88.7698C23.6805 89.4879 23.2632 90.6479 22.7188 92.2582C22.6967 92.3521 22.6525 92.3963 22.5862 92.3963C22.4756 92.3963 22.448 92.3245 22.4977 92.1836C22.6122 91.7603 22.6716 91.324 22.6746 90.8855C22.6981 90.3356 22.5566 89.7912 22.2684 89.3222C22.1451 89.1265 21.9724 88.9668 21.7676 88.8591C21.5629 88.7514 21.3333 88.6997 21.1022 88.709C20.1386 88.709 19.1475 89.5846 18.1286 91.3357C17.1999 92.853 16.6555 94.5737 16.5424 96.3488C16.5009 97.1553 16.6723 97.7658 17.0509 98.1801C17.2394 98.3816 17.4702 98.5389 17.7268 98.6407C17.9834 98.7424 18.2594 98.786 18.5349 98.7684C19.0349 98.7697 19.5289 98.6593 19.9808 98.4452C20.4326 98.2311 20.8309 97.9187 21.1464 97.531C21.8615 96.7431 22.2695 95.7246 22.296 94.6612C22.3358 94.1186 22.1864 93.5789 21.8732 93.1338C21.73 92.9383 21.541 92.7809 21.3227 92.6754C21.1044 92.5699 20.8636 92.5196 20.6213 92.5289C20.2474 92.5295 19.8782 92.6133 19.5408 92.7743C19.2033 92.9353 18.9059 93.1695 18.6703 93.4597C18.1354 94.0576 17.8307 94.8261 17.8108 95.6279C17.7766 96.0506 17.9029 96.4707 18.1646 96.8046C18.273 96.9492 18.4135 97.0667 18.5752 97.1477C18.7368 97.2287 18.9151 97.271 19.0959 97.2714C19.3625 97.277 19.6272 97.2246 19.8715 97.1178C20.1158 97.0109 20.334 96.8522 20.5108 96.6527C20.8707 96.2485 21.1134 95.7538 21.2127 95.2219C21.2162 95.1819 21.2352 95.1447 21.2657 95.1185C21.2961 95.0922 21.3356 95.0787 21.3758 95.081C21.478 95.081 21.5195 95.1335 21.5001 95.2357C21.3994 95.8267 21.1241 96.374 20.7098 96.8073C20.5017 97.0315 20.2494 97.2101 19.9687 97.3318C19.6881 97.4536 19.3852 97.5157 19.0793 97.5144C18.8651 97.5149 18.6536 97.4672 18.4603 97.3749C18.2671 97.2827 18.0971 97.1482 17.9628 96.9813C17.6474 96.5986 17.4928 96.1085 17.5317 95.6141C17.5619 94.7415 17.9075 93.9094 18.5045 93.2719C18.7701 92.9594 19.1004 92.7082 19.4725 92.5356C19.8446 92.363 20.2498 92.2731 20.66 92.272C20.9312 92.2662 21.1999 92.3236 21.445 92.4396C21.6902 92.5556 21.9049 92.7271 22.0722 92.9404C22.4533 93.429 22.6341 94.0442 22.5779 94.6612C22.5458 95.782 22.1237 96.8565 21.3841 97.6995C21.0384 98.1253 20.6008 98.4672 20.1039 98.6997C19.6071 98.9322 19.0641 99.0492 18.5155 99.0418C18.0869 99.0436 17.6631 98.951 17.2743 98.7705C16.8855 98.5901 16.5413 98.3262 16.266 97.9978C15.9508 97.6379 15.7107 97.2187 15.5598 96.7648C15.4088 96.3109 15.3502 95.8314 15.3872 95.3545C15.4628 93.7967 16.1316 92.2564 17.3936 90.7336C18.6556 89.2108 19.901 88.4503 21.1298 88.4521C21.4674 88.4453 21.7991 88.5416 22.0805 88.7283C22.2867 88.8806 22.4725 89.0589 22.6332 89.2586C22.8045 89.452 22.9344 89.5348 23.0228 89.5348C23.1148 89.5339 23.2047 89.5076 23.2828 89.4589C23.3608 89.4101 23.4238 89.3409 23.465 89.2586C23.5694 89.0651 23.6563 88.8627 23.7247 88.6537C23.7326 88.6245 23.7498 88.5987 23.7738 88.5803C23.7978 88.5618 23.8271 88.5517 23.8574 88.5515C23.8734 88.5491 23.8898 88.5505 23.9052 88.5557C23.9206 88.5608 23.9346 88.5696 23.9459 88.5812C23.9572 88.5928 23.9657 88.6069 23.9705 88.6224C23.9752 88.6379 23.9763 88.6543 23.9735 88.6703C23.9746 88.7042 23.9689 88.738 23.9569 88.7698Z" fill="#2B00FF"/>
<path d="M29.6469 95.9152C29.6447 95.9511 29.6343 95.9861 29.6165 96.0174C28.7911 97.9398 27.9943 98.901 27.226 98.901C27.0682 98.9011 26.9137 98.8562 26.7805 98.7715C26.6474 98.6869 26.5412 98.566 26.4744 98.4231C26.3196 98.1409 26.2433 97.8223 26.2533 97.5006C26.2533 96.9482 26.5296 96.1288 27.0823 95.0424C27.635 93.956 27.9114 93.1992 27.9114 92.772C27.9114 92.4295 27.7843 92.2555 27.5273 92.2555C26.9746 92.2555 26.2662 93.1927 25.4021 95.0672C25.1258 95.6694 24.6366 96.9132 23.9347 98.7988H22.6967L25.9769 89.5735C26.0167 89.4721 26.0391 89.3647 26.0433 89.2559C26.0433 89.0736 25.9217 88.9797 25.6757 88.9797H25.0042C24.8964 88.9797 24.8439 88.9382 24.8439 88.8554C24.8439 88.7725 24.8826 88.7062 24.96 88.7062H27.1514C27.3449 88.7062 27.4001 88.8222 27.3228 89.0542C26.2174 92.0612 25.5164 93.9486 25.2197 94.7165C25.4935 94.1464 25.8008 93.593 26.14 93.0592C26.6319 92.3411 27.1183 91.982 27.5936 91.982C27.7743 91.9875 27.9496 92.0445 28.0989 92.1463C28.2483 92.2481 28.3654 92.3904 28.4365 92.5565C28.6084 92.8844 28.6967 93.2497 28.6935 93.6199C28.6935 94.1594 28.4245 94.9742 27.8865 96.0643C27.3338 97.1526 27.0796 97.868 27.0796 98.2049C27.0796 98.4673 27.1846 98.5971 27.3946 98.5971C27.8791 98.5971 28.5341 97.7022 29.3595 95.9124C29.3982 95.8185 29.4534 95.7716 29.528 95.7716C29.6027 95.7716 29.6469 95.8213 29.6469 95.9152Z" fill="#2B00FF"/>
<path d="M36.8403 95.9152C36.8356 95.9506 36.8254 95.9851 36.8099 96.0174C36.552 96.6247 36.249 97.2119 35.9035 97.774C35.3932 98.5253 34.869 98.901 34.3311 98.901C34.2011 98.9072 34.0716 98.8809 33.9543 98.8245C33.837 98.7681 33.7357 98.6833 33.6595 98.5778C33.4926 98.3224 33.422 98.0159 33.4606 97.7133C33.497 97.3502 33.5816 96.9935 33.712 96.6526C33.6125 96.8349 33.4578 97.1084 33.2478 97.4813C32.6508 98.4369 32.006 98.9139 31.3133 98.912C31.0962 98.9126 30.8826 98.8579 30.6925 98.753C30.5025 98.6482 30.3424 98.4966 30.2273 98.3126C29.9309 97.8685 29.7963 97.3361 29.8459 96.8046C29.9288 95.4125 30.5828 94.107 31.808 92.888C32.4132 92.2941 32.9908 91.9958 33.5352 91.9958C33.6952 91.992 33.8535 92.0306 33.9937 92.1078C34.134 92.1849 34.2514 92.2978 34.3338 92.435C34.5374 92.7808 34.6273 93.1817 34.5908 93.5812C34.5791 93.7295 34.5597 93.877 34.5328 94.0232L35.2983 92.1201H36.5087C36.0076 93.3299 35.2918 95.0875 34.3615 97.3929C34.2664 97.6335 34.2122 97.8884 34.2012 98.1469C34.2012 98.4452 34.2951 98.5944 34.4775 98.5944C35.0837 98.5944 35.7672 97.705 36.528 95.9262C36.5723 95.8323 36.6275 95.7854 36.6966 95.7854C36.7657 95.7854 36.8514 95.8213 36.8403 95.9152ZM34.3532 93.6227C34.3846 93.2843 34.3245 92.9438 34.1791 92.6366C34.133 92.5272 34.0564 92.4333 33.9584 92.3662C33.8604 92.2991 33.7451 92.2616 33.6264 92.2582C33.1814 92.2582 32.684 92.8106 32.1285 93.9155C31.3437 95.4585 30.9255 96.7291 30.8739 97.7271C30.8435 98.3292 31.0397 98.6275 31.4625 98.6275C32.03 98.6275 32.591 98.1405 33.1455 97.1664C33.8806 95.813 34.2868 94.6336 34.3476 93.6337L34.3532 93.6227Z" fill="#2B00FF"/>
<path d="M43.3401 95.9152C43.3391 95.951 43.3296 95.986 43.3124 96.0174C42.4373 97.9398 41.6405 98.901 40.922 98.901C40.7619 98.9002 40.6055 98.853 40.4716 98.7653C40.3377 98.6776 40.2321 98.553 40.1676 98.4066C40.0132 98.1249 39.9351 97.8079 39.941 97.4868C39.941 96.9344 40.2173 96.1058 40.77 95.0286C41.3227 93.9514 41.5991 93.1918 41.5991 92.7582C41.5991 92.4157 41.4692 92.2416 41.2149 92.2416C40.6622 92.2416 39.9539 93.1789 39.0898 95.0534C38.8135 95.6556 38.3234 96.8994 37.6196 98.785H36.3954L38.3741 93.305C38.4599 93.1071 38.5167 92.8978 38.5426 92.6836C38.5426 92.4737 38.4127 92.3687 38.153 92.3687H37.5561C37.4621 92.3687 37.4151 92.3245 37.4151 92.2416C37.4151 92.1588 37.4676 92.1091 37.5699 92.1091H39.5624C39.7448 92.1091 39.8028 92.2196 39.7337 92.4405C39.4187 93.3851 39.1423 94.1447 38.9046 94.7192C39.179 94.1489 39.4872 93.5955 39.8277 93.062C40.3196 92.3438 40.8041 91.9848 41.2813 91.9848C41.4596 91.9925 41.6322 92.0506 41.7789 92.1522C41.9256 92.2539 42.0405 92.395 42.1103 92.5593C42.2848 92.8864 42.3741 93.252 42.3701 93.6227C42.3701 94.1751 42.0937 94.9761 41.5631 96.0671C41.0325 97.1581 40.7534 97.8707 40.7534 98.2077C40.7534 98.4701 40.8584 98.5999 41.0712 98.5999C41.5521 98.5999 42.2061 97.705 43.0333 95.9152C43.072 95.8213 43.13 95.7743 43.2047 95.7743C43.2793 95.7743 43.3401 95.8213 43.3401 95.9152Z" fill="#2B00FF"/>
<path d="M50.0333 92.1091L47.5682 98.9838C47.4254 99.4233 47.2403 99.8479 47.0155 100.252C46.7188 100.77 46.2933 101.203 45.7802 101.508C45.2788 101.827 44.6972 101.998 44.1028 102C43.6573 102.009 43.2212 101.871 42.862 101.608C42.6801 101.484 42.5322 101.316 42.4317 101.12C42.3313 100.924 42.2816 100.706 42.2872 100.486C42.2868 100.237 42.3727 99.9949 42.5303 99.8014C42.6012 99.704 42.6944 99.6251 42.8021 99.5713C42.9098 99.5174 43.0289 99.4903 43.1494 99.492C43.2298 99.49 43.3098 99.5049 43.3841 99.5358C43.4584 99.5668 43.5253 99.613 43.5805 99.6716C43.6371 99.7296 43.6817 99.7984 43.7115 99.8737C43.7414 99.9491 43.7561 100.03 43.7546 100.111C43.7497 100.229 43.7172 100.345 43.6596 100.448C43.602 100.552 43.521 100.641 43.423 100.707C43.2019 100.887 43.0913 101.019 43.0913 101.108C43.0913 101.539 43.434 101.757 44.1166 101.757C44.5768 101.771 45.0253 101.61 45.3712 101.307C45.6685 101.006 45.9 100.647 46.0511 100.252C46.203 99.818 46.3578 99.3871 46.5153 98.9534C46.6977 98.4563 46.9685 97.7216 47.3444 96.7438C46.7198 98.1782 45.9893 98.8954 45.1529 98.8954C44.908 98.8992 44.6668 98.8352 44.4561 98.7104C44.2454 98.5856 44.0734 98.4049 43.9591 98.1884C43.7185 97.7616 43.5982 97.2777 43.6109 96.788C43.6109 95.407 44.2207 94.1014 45.4403 92.8714C46.0262 92.2785 46.5844 91.9811 47.115 91.9793C47.2955 91.9807 47.4719 92.0331 47.6239 92.1303C47.776 92.2276 47.8975 92.3657 47.9745 92.5289C48.1477 92.8528 48.2316 93.217 48.2176 93.584C48.2112 93.732 48.1965 93.8796 48.1734 94.0259L48.8228 92.1229L50.0333 92.1091ZM47.9606 93.6227C47.9678 93.3275 47.9171 93.0338 47.8114 92.7581C47.7724 92.6186 47.6901 92.4951 47.5764 92.4053C47.4627 92.3154 47.3234 92.264 47.1786 92.2582C46.6001 92.2582 46.0096 93.0252 45.4072 94.559C44.871 95.9143 44.603 96.9657 44.603 97.7133C44.603 98.3154 44.8102 98.6137 45.222 98.6137C45.911 98.6137 46.5632 97.9407 47.1786 96.5947C47.6981 95.4235 47.9588 94.4366 47.9606 93.6337V93.6227Z" fill="#2B00FF"/>
<path d="M55.2949 93.3189C55.2949 94.5673 54.0357 95.4328 51.5172 95.9152C51.3372 96.4093 51.2438 96.9306 51.2409 97.4564C51.2298 97.7525 51.3173 98.0439 51.4896 98.285C51.5757 98.3954 51.6873 98.4832 51.8149 98.541C51.9424 98.5987 52.0821 98.6246 52.2219 98.6165C53.0362 98.6165 53.8229 97.9287 54.5819 96.5532C54.6621 96.3903 54.7809 96.1527 54.944 95.8434C54.9548 95.8151 54.9742 95.7908 54.9995 95.774C55.0247 95.7572 55.0546 95.7486 55.0849 95.7495C55.1623 95.7495 55.201 95.7909 55.201 95.8738C55.2018 95.9038 55.1971 95.9338 55.1871 95.9621C54.8948 96.6703 54.4918 97.3275 53.9933 97.9094C53.389 98.5907 52.7442 98.9323 52.0589 98.9341C51.7856 98.9345 51.5164 98.8674 51.2754 98.7387C51.0343 98.6101 50.8288 98.4239 50.6771 98.1966C50.3444 97.7471 50.1687 97.2007 50.1769 96.6416C50.1769 95.6417 50.5702 94.6364 51.3569 93.6254C52.1823 92.5317 53.0823 91.9857 54.0569 91.9875C54.225 91.9817 54.3924 92.0134 54.5468 92.0803C54.7012 92.1472 54.8388 92.2476 54.9495 92.3742C55.1808 92.6337 55.3043 92.9715 55.2949 93.3189ZM54.4963 92.9736C54.4963 92.4764 54.2862 92.2278 53.8634 92.2278C53.1265 92.2278 52.3711 93.3612 51.5974 95.6279C52.3146 95.5672 52.9931 95.2766 53.5318 94.7993C53.8236 94.591 54.0627 94.3174 54.2301 94.0005C54.3976 93.6836 54.4887 93.3319 54.4963 92.9736Z" fill="#2B00FF"/>
<path d="M74.9352 88.709C75.0347 88.709 75.0844 88.7504 75.0844 88.8278C75.0844 88.9051 75.0098 88.9686 74.8633 88.9686C74.3678 88.9386 73.8733 89.0426 73.4319 89.2697C72.9337 89.6421 72.5021 90.096 72.1551 90.612L69.3916 94.2718L67.8496 98.5253H69.679C69.7564 98.5253 69.7951 98.5668 69.7951 98.6524C69.7951 98.738 69.7426 98.785 69.6348 98.785H65.1165C65.0419 98.785 65.0059 98.7435 65.0059 98.6662C65.0059 98.5889 65.0557 98.5253 65.1607 98.5253H66.5618C66.9947 97.391 67.3264 96.5017 67.5566 95.8572C68.0836 94.3565 68.347 93.1467 68.347 92.2278C68.347 89.5376 67.4 88.1925 65.5061 88.1925C64.8304 88.1793 64.1593 88.3054 63.5345 88.563C62.9097 88.8206 62.3448 89.2041 61.8749 89.6895C61.4464 90.0948 61.1034 90.5817 60.8661 91.1215C60.6288 91.6614 60.502 92.2432 60.4931 92.8327C60.4773 93.2089 60.5451 93.5839 60.6918 93.9307C60.8386 94.2774 61.0604 94.5873 61.3415 94.838C61.8144 95.2694 62.434 95.5044 63.0742 95.4954C63.5169 95.5023 63.9564 95.4206 64.367 95.255C64.7775 95.0895 65.1508 94.8434 65.4647 94.5314C65.7894 94.2249 66.046 93.8535 66.2179 93.4414C66.3898 93.0294 66.473 92.5858 66.4623 92.1395C66.4734 91.858 66.4239 91.5775 66.3171 91.3168C66.2103 91.0561 66.0487 90.8214 65.8433 90.6286C65.6631 90.4544 65.4501 90.3177 65.2168 90.2262C64.9834 90.1347 64.7342 90.0903 64.4836 90.0955C64.0882 90.0898 63.6971 90.1776 63.3421 90.3519C62.9872 90.5261 62.6785 90.7819 62.4414 91.0982C61.9756 91.6685 61.7244 92.3838 61.7312 93.12C61.7202 93.2543 61.7376 93.3893 61.7824 93.5164C61.8272 93.6435 61.8982 93.7597 61.9909 93.8575C62.0011 93.8681 62.009 93.8807 62.0142 93.8944C62.0194 93.9082 62.0219 93.9229 62.0213 93.9376C62.0213 94.0066 61.9771 94.0425 61.8942 94.0425C61.7671 94.0425 61.6566 93.9072 61.5626 93.6365C61.508 93.4573 61.4782 93.2714 61.4742 93.0841C61.4552 92.2683 61.7522 91.4766 62.3032 90.8744C62.5665 90.5643 62.8955 90.3167 63.2664 90.1495C63.6374 89.9823 64.0409 89.8997 64.4477 89.9077C64.7499 89.8959 65.0514 89.9454 65.334 90.0532C65.6166 90.1609 65.8744 90.3247 66.092 90.5347C66.3028 90.7446 66.4681 90.9956 66.5775 91.2722C66.6868 91.5488 66.7379 91.845 66.7276 92.1422C66.7356 92.6066 66.6502 93.0679 66.4764 93.4987C66.3027 93.9296 66.0441 94.3211 65.7161 94.6502C65.374 95.0102 64.9602 95.2945 64.5013 95.4848C64.0425 95.6751 63.5488 95.7672 63.0521 95.755C62.3399 95.7614 61.6506 95.5036 61.1177 95.0313C60.8098 94.7607 60.5659 94.425 60.4039 94.0486C60.2419 93.6721 60.1657 93.2644 60.1808 92.8548C60.1773 92.1979 60.3168 91.548 60.5898 90.9504C60.8628 90.3527 61.2626 89.8217 61.7616 89.394C62.7753 88.4477 64.1164 87.9309 65.5034 87.9522C66.8114 87.9522 67.8173 88.4042 68.5211 89.3083C69.1604 90.1443 69.48 91.263 69.48 92.6642C69.4766 93.0339 69.4489 93.403 69.3971 93.7691L71.7295 90.7004C71.9509 90.4556 72.0926 90.1493 72.1358 89.8221C72.1358 89.2697 71.6687 88.9935 70.7347 88.9935C70.7173 88.9964 70.6996 88.995 70.6828 88.9897C70.6661 88.9843 70.6509 88.975 70.6384 88.9626C70.626 88.9502 70.6167 88.935 70.6114 88.9182C70.606 88.9015 70.6047 88.8838 70.6076 88.8664C70.6076 88.778 70.6684 88.7338 70.7927 88.7338L74.9352 88.709Z" fill="#2B00FF"/>
<path d="M76.9139 94.5203C76.927 95.6387 76.5343 96.7239 75.8085 97.5752C75.0715 98.459 74.237 98.901 73.3047 98.901C73.0354 98.8949 72.7715 98.8233 72.5361 98.6924C72.3006 98.5615 72.1006 98.3752 71.9534 98.1497C71.5671 97.6249 71.3667 96.9863 71.3841 96.335C71.376 95.2283 71.7686 94.1561 72.4895 93.3161C73.2264 92.4267 74.0555 91.9829 74.9767 91.9848C75.2494 91.9855 75.5179 92.0528 75.7587 92.1809C75.9995 92.3089 76.2054 92.4938 76.3584 92.7195C76.7403 93.2406 76.9359 93.8748 76.9139 94.5203ZM75.8085 93.4818C75.8085 92.6458 75.5247 92.2278 74.9573 92.2278C74.4967 92.2278 74.0592 92.6118 73.6446 93.3796C73.292 94.0455 73.0068 94.7451 72.7935 95.4677C72.5848 96.1061 72.4693 96.7713 72.4508 97.4426C72.4508 98.2574 72.7465 98.6662 73.3434 98.6662C73.839 98.6662 74.2885 98.2924 74.692 97.5448C75.3976 96.3048 75.7814 94.9081 75.8085 93.4818Z" fill="#2B00FF"/>
<path d="M83.7093 95.9152C83.7085 95.9514 83.698 95.9867 83.6789 96.0174C83.4225 96.6323 83.1147 97.2246 82.7587 97.7879C82.2668 98.5309 81.7776 98.8927 81.2968 98.8927C80.7303 98.8927 80.4484 98.5281 80.4484 97.7879C80.4428 97.3442 80.5255 96.9039 80.6916 96.4925C80.4321 97.0671 80.0976 97.6049 79.6967 98.0917C79.238 98.622 78.8069 98.8872 78.3979 98.8872C78.2337 98.8851 78.0731 98.8392 77.9326 98.7542C77.7922 98.6692 77.6771 98.5482 77.5992 98.4038C77.3955 98.0887 77.288 97.7211 77.2897 97.3459C77.3167 96.8834 77.4243 96.4291 77.6075 96.0036C77.8894 95.3112 78.2975 94.2497 78.8317 92.8189C78.851 92.7619 78.8612 92.7023 78.8621 92.6421C78.8655 92.605 78.8607 92.5676 78.848 92.5326C78.8353 92.4975 78.8151 92.4657 78.7887 92.4393C78.7623 92.4129 78.7305 92.3927 78.6954 92.38C78.6603 92.3674 78.6229 92.3625 78.5858 92.3659H78.1215C78.0165 92.3659 77.9668 92.3218 77.9668 92.2389C77.9668 92.156 78.0137 92.1063 78.1049 92.1063H79.9565C79.9918 92.1012 80.0278 92.1044 80.0616 92.1157C80.0954 92.1269 80.1262 92.1459 80.1514 92.1711C80.1766 92.1963 80.1956 92.227 80.2069 92.2609C80.2181 92.2947 80.2213 92.3307 80.2162 92.3659C80.2136 92.416 80.2034 92.4654 80.1858 92.5123C79.8321 93.5509 79.3384 94.8242 78.7046 96.3323C78.3361 97.2198 78.1519 97.7998 78.1519 98.0724C78.1519 98.4231 78.2873 98.5971 78.5581 98.5971C78.9266 98.5971 79.3347 98.2749 79.7824 97.6304C80.1088 97.153 80.3865 96.6441 80.6114 96.1113C80.9007 95.3932 81.3161 94.2994 81.8578 92.83C81.8821 92.7741 81.8953 92.7141 81.8965 92.6532C81.8999 92.6161 81.895 92.5787 81.8824 92.5436C81.8697 92.5085 81.8494 92.4767 81.823 92.4504C81.7967 92.424 81.7648 92.4038 81.7298 92.3911C81.6947 92.3784 81.6572 92.3736 81.6201 92.377H81.1918C81.0923 92.377 81.0425 92.3328 81.0425 92.2499C81.0397 92.2319 81.0412 92.2134 81.0468 92.196C81.0525 92.1786 81.0622 92.1629 81.0751 92.1499C81.0881 92.137 81.1039 92.1273 81.1212 92.1217C81.1386 92.116 81.1571 92.1145 81.1752 92.1174H82.9908C83.0261 92.1123 83.0621 92.1155 83.0959 92.1267C83.1298 92.138 83.1605 92.1569 83.1857 92.1822C83.211 92.2074 83.2299 92.2381 83.2412 92.2719C83.2525 92.3057 83.2557 92.3417 83.2506 92.377C83.248 92.4271 83.2377 92.4764 83.2202 92.5234C82.7227 93.8013 82.1221 95.3665 81.4184 97.2189C81.2787 97.5401 81.1857 97.8795 81.142 98.227C81.142 98.4894 81.2526 98.6192 81.4736 98.6192C81.9987 98.6192 82.6527 97.7243 83.4357 95.9345C83.4799 95.8406 83.538 95.7937 83.6071 95.7937C83.6762 95.7937 83.7093 95.8213 83.7093 95.9152Z" fill="#2B00FF"/>
<path d="M88.9269 92.9349C88.9311 93.274 88.8276 93.6058 88.6312 93.8823C88.5616 94.0041 88.4622 94.1063 88.3423 94.1792C88.2225 94.2522 88.086 94.2935 87.9458 94.2994C87.8693 94.3003 87.7934 94.2852 87.723 94.2553C87.6526 94.2253 87.5892 94.1811 87.5368 94.1254C87.4813 94.0685 87.4378 94.001 87.4088 93.927C87.3799 93.853 87.3661 93.7739 87.3682 93.6945C87.3682 93.3327 87.5948 93.015 88.0481 92.7443C88.1724 92.6615 88.2332 92.5786 88.2332 92.5013C88.2332 92.3577 88.1503 92.2858 87.99 92.2858C87.4244 92.2858 86.728 93.2176 85.9008 95.081C85.7442 95.4346 85.2726 96.6692 84.4859 98.785H83.2589L85.2376 93.305C85.3179 93.1061 85.37 92.8969 85.3923 92.6836C85.3923 92.4737 85.268 92.3687 85.0165 92.3687H84.4251C84.3312 92.3687 84.2842 92.3245 84.2842 92.2416C84.2842 92.1588 84.3367 92.1091 84.4389 92.1091H86.4314C86.6138 92.1091 86.6718 92.2196 86.6028 92.4405C86.2767 93.3962 86.0058 94.1558 85.7737 94.7192C86.0416 94.1403 86.35 93.5809 86.6967 93.0454C87.1868 92.3328 87.6731 91.9765 88.1558 91.9765C88.2632 91.9756 88.3693 92.0002 88.4654 92.0482C88.5615 92.0962 88.6448 92.1663 88.7085 92.2527C88.86 92.447 88.9373 92.6888 88.9269 92.9349Z" fill="#2B00FF"/>
<path d="M101.219 89.3746C101.18 90.3414 100.595 91.2335 99.464 92.0511C98.7242 92.6403 97.853 93.0421 96.9244 93.2222L95.0065 98.5253H96.4242C98.1983 98.5253 99.5653 97.2916 100.525 94.8242C100.557 94.7358 100.606 94.6916 100.674 94.6916C100.785 94.6916 100.821 94.7524 100.777 94.8739L99.3949 98.785H91.9804C91.9031 98.785 91.8644 98.7491 91.8644 98.68C91.8644 98.611 91.9252 98.5253 92.0468 98.5253H93.6192C93.7003 98.3154 94.3497 96.5477 95.5675 93.2222C94.9699 93.2306 94.3835 93.0593 93.8845 92.7305C93.5675 92.5344 93.3118 92.2534 93.1463 91.9196C92.9807 91.5857 92.9119 91.2122 92.9477 90.8413C92.9701 90.4445 93.081 90.0578 93.2723 89.7094C93.4635 89.361 93.7303 89.0598 94.0531 88.8278C94.6696 88.3468 95.3896 88.0159 96.1561 87.861C96.3247 87.8334 96.4076 87.861 96.4076 87.9881C96.4076 88.1151 96.3523 88.129 96.2445 88.1483C95.5383 88.2768 94.8715 88.567 94.2963 88.9962C93.9968 89.2055 93.7494 89.4807 93.5731 89.8005C93.3968 90.1204 93.2963 90.4765 93.2793 90.8413C93.2506 91.1625 93.3104 91.4854 93.4521 91.7751C93.5939 92.0647 93.8122 92.3101 94.0835 92.4847C94.5595 92.792 95.117 92.9489 95.6835 92.9349C96.9455 89.7181 98.4019 88.1096 100.053 88.1096C100.868 88.1096 101.258 88.5267 101.219 89.3746ZM100.942 89.3746C100.974 88.7191 100.706 88.3913 100.138 88.3913C99.0532 88.3913 98.0159 89.8967 97.0266 92.9073C97.9524 92.7014 98.8133 92.2707 99.5331 91.6533C100.436 90.9186 100.907 90.1591 100.945 89.3746H100.942Z" fill="#2B00FF"/>
<path d="M104.237 95.9152C104.236 95.9514 104.225 95.9867 104.206 96.0174C103.379 97.9398 102.582 98.901 101.816 98.901C101.656 98.8996 101.5 98.8523 101.367 98.7646C101.234 98.6769 101.129 98.5525 101.064 98.4066C100.909 98.1251 100.83 97.8081 100.835 97.4868C100.853 96.982 100.96 96.4844 101.153 96.0174L102.377 92.8327C102.395 92.7754 102.405 92.716 102.407 92.656C102.411 92.6188 102.406 92.5814 102.393 92.5464C102.38 92.5113 102.36 92.4795 102.334 92.4531C102.307 92.4268 102.276 92.4065 102.241 92.3938C102.205 92.3812 102.168 92.3764 102.131 92.3798H101.556C101.457 92.3798 101.407 92.3356 101.407 92.2527C101.404 92.2346 101.405 92.2162 101.411 92.1988C101.417 92.1814 101.427 92.1656 101.439 92.1527C101.452 92.1398 101.468 92.1301 101.486 92.1244C101.503 92.1188 101.521 92.1173 101.539 92.1201H103.502C103.537 92.115 103.573 92.1182 103.607 92.1295C103.641 92.1407 103.671 92.1597 103.697 92.1849C103.722 92.2101 103.741 92.2409 103.752 92.2747C103.763 92.3085 103.766 92.3445 103.761 92.3798C103.759 92.4298 103.748 92.4792 103.731 92.5261C103.239 93.8041 102.639 95.3692 101.932 97.2216C101.793 97.5429 101.7 97.8824 101.656 98.2298C101.656 98.4922 101.766 98.622 101.987 98.622C102.468 98.622 103.122 97.7271 103.949 95.9373C103.988 95.8434 104.043 95.7964 104.112 95.7964C104.181 95.7964 104.237 95.8213 104.237 95.9152ZM104.444 90.2502C104.43 90.5035 104.333 90.7452 104.168 90.938C104.1 91.0239 104.013 91.0934 103.915 91.1412C103.816 91.1891 103.708 91.214 103.598 91.2142C103.506 91.2161 103.414 91.1949 103.332 91.1525C103.25 91.11 103.18 91.0476 103.129 90.9711C103.007 90.8059 102.952 90.6005 102.977 90.3966C102.99 90.1521 103.087 89.9197 103.253 89.7392C103.325 89.6537 103.416 89.5847 103.517 89.5371C103.619 89.4894 103.729 89.4642 103.842 89.463C103.931 89.459 104.021 89.4771 104.102 89.5156C104.184 89.5541 104.255 89.6119 104.309 89.684C104.368 89.7645 104.41 89.8562 104.434 89.9534C104.457 90.0507 104.46 90.1516 104.444 90.2502Z" fill="#2B00FF"/>
<path d="M110.908 90.1121C110.916 90.3754 110.839 90.6344 110.687 90.8496C110.621 90.9423 110.533 91.0174 110.432 91.0684C110.33 91.1195 110.217 91.1449 110.104 91.1424C110.015 91.1431 109.928 91.1253 109.847 91.09C109.766 91.0548 109.693 91.003 109.634 90.938C109.572 90.8765 109.524 90.8026 109.493 90.7212C109.462 90.6397 109.449 90.5526 109.454 90.4656C109.458 90.3233 109.504 90.1851 109.585 90.0683C109.667 89.9515 109.781 89.8611 109.913 89.8083C109.996 89.771 110.067 89.71 110.116 89.6329C110.165 89.5558 110.191 89.466 110.189 89.3746C110.203 89.2641 110.142 89.1675 110.004 89.0819C109.87 88.9962 109.713 88.9511 109.554 88.952C108.852 88.952 108.327 89.4465 107.984 90.427L107.401 92.1091H108.846C108.929 92.1091 108.971 92.1533 108.971 92.2416C108.971 92.3245 108.921 92.3687 108.816 92.3687H107.318L104.027 101.483H102.802L106.08 92.3687H104.662C104.604 92.3687 104.574 92.3245 104.574 92.2416C104.574 92.1588 104.637 92.1091 104.764 92.1091H106.174L106.508 91.2307C106.762 90.5209 107.192 89.887 107.757 89.3884C108.248 88.9516 108.882 88.7099 109.54 88.709C109.721 88.7057 109.902 88.7406 110.069 88.8115C110.236 88.8824 110.386 88.9877 110.51 89.1205C110.639 89.2511 110.74 89.406 110.809 89.5763C110.877 89.7465 110.911 89.9287 110.908 90.1121Z" fill="#2B00FF"/>
<path d="M112.613 93.3188C112.613 94.5673 111.354 95.4327 108.835 95.9152C108.651 96.4085 108.552 96.9298 108.545 97.4564C108.535 97.7528 108.623 98.0443 108.796 98.285C108.883 98.3954 108.994 98.4832 109.122 98.541C109.249 98.5987 109.389 98.6246 109.529 98.6165C110.345 98.6165 111.132 97.9287 111.889 96.5532C111.969 96.3903 112.088 96.1527 112.251 95.8434C112.261 95.8148 112.281 95.7903 112.306 95.7734C112.331 95.7566 112.361 95.7482 112.392 95.7495C112.469 95.7495 112.508 95.7909 112.508 95.8737C112.509 95.9038 112.504 95.9338 112.494 95.9621C112.202 96.6709 111.798 97.3283 111.297 97.9094C110.695 98.5916 110.054 98.9341 109.38 98.9341C109.106 98.9345 108.837 98.8674 108.596 98.7387C108.355 98.6101 108.149 98.4239 107.998 98.1966C107.665 97.7471 107.489 97.2007 107.498 96.6416C107.498 95.6417 107.891 94.6364 108.678 93.6254C109.501 92.5261 110.398 91.9765 111.369 91.9765C111.537 91.971 111.705 92.0029 111.859 92.0697C112.013 92.1366 112.151 92.2368 112.262 92.3632C112.498 92.6246 112.624 92.967 112.613 93.3188ZM111.814 92.9736C111.814 92.4764 111.604 92.2278 111.181 92.2278C110.444 92.2278 109.689 93.3612 108.915 95.6279C109.637 95.5701 110.321 95.2793 110.864 94.7993C111.153 94.5895 111.389 94.3153 111.554 93.9985C111.719 93.6816 111.808 93.3307 111.814 92.9736Z" fill="#2B00FF"/>
<path d="M68.5211 25.5269H74.1891L77.345 19.5664L77.9668 25.5269H84.2012L78.3454 29.2226L78.9644 34.4539L75.1065 31.2444L69.1153 35.0201L72.5144 29.0071L68.5211 25.5269Z" fill="#4DA5EC"/>
</g>
<defs>
<clipPath id="clip0_1_544">
<rect width="128" height="102" fill="white"/>
</clipPath>
</defs>
</svg>
